<?xml version="1.0" encoding="UTF-8" standalone="no"?>
<svg
   xmlns:dc="http://purl.org/dc/elements/1.1/"
   xmlns:cc="http://creativecommons.org/ns#"
   xmlns:rdf="http://www.w3.org/1999/02/22-rdf-syntax-ns#"
   xmlns:svg="http://www.w3.org/2000/svg"
   xmlns="http://www.w3.org/2000/svg"
   xmlns:sodipodi="http://sodipodi.sourceforge.net/DTD/sodipodi-0.dtd"
   xmlns:inkscape="http://www.inkscape.org/namespaces/inkscape"
   viewBox="0 0 100 100"
   version="1.1"
   id="svg4"
   sodipodi:docname="skipped.svg"
   inkscape:version="0.92.2 5c3e80d, 2017-08-06"
   width="100"
   height="100">
  <metadata
     id="metadata10">
    <rdf:RDF>
      <cc:Work
         rdf:about="">
        <dc:format>image/svg+xml</dc:format>
        <dc:type
           rdf:resource="http://purl.org/dc/dcmitype/StillImage" />
        <dc:title />
      </cc:Work>
    </rdf:RDF>
  </metadata>
  <defs
     id="defs8" />
  <sodipodi:namedview
     pagecolor="#ffffff"
     bordercolor="#666666"
     borderopacity="1"
     objecttolerance="10"
     gridtolerance="10"
     guidetolerance="10"
     inkscape:pageopacity="0"
     inkscape:pageshadow="2"
     inkscape:window-width="1920"
     inkscape:window-height="1016"
     id="namedview6"
     showgrid="false"
     inkscape:zoom="5.2149124"
     inkscape:cx="41.362251"
     inkscape:cy="39.027572"
     inkscape:window-x="0"
     inkscape:window-y="27"
     inkscape:window-maximized="1"
     inkscape:current-layer="svg4"
     fit-margin-top="0"
     fit-margin-left="0"
     fit-margin-right="0"
     fit-margin-bottom="0"
     inkscape:snap-bbox="true"
     inkscape:snap-nodes="true"
     inkscape:snap-intersection-paths="true"
     inkscape:object-paths="true" />
  <path
     style="opacity:1;fill:#ffdd23;fill-opacity:0.48425198;fill-rule:nonzero;stroke:none;stroke-width:3.77952766;stroke-linecap:round;stroke-miterlimit:4;stroke-dasharray:none;stroke-dashoffset:0;stroke-opacity:1"
     d="M 50 0 A 50 50 0 0 0 0 50 A 50 50 0 0 0 50 100 A 50 50 0 0 0 100 50 A 50 50 0 0 0 50 0 z M 26.025391 18.414062 C 27.287576 18.432444 28.557825 18.934779 29.539062 19.916016 L 56.080078 46.457031 L 56.181641 46.558594 C 57.077755 47.454708 57.527381 48.619709 57.564453 49.804688 C 57.567606 49.870027 57.579516 49.93467 57.580078 50 C 57.579516 50.06533 57.567606 50.129973 57.564453 50.195312 C 57.527381 51.380291 57.077755 52.545292 56.181641 53.441406 L 55.333984 54.289062 L 29.539062 80.083984 C 27.576588 82.046459 24.460821 82.091682 22.554688 80.185547 L 21.707031 79.339844 C 19.800897 77.43371 19.84612 74.317944 21.808594 72.355469 L 44.166016 50 L 21.808594 27.644531 C 19.84612 25.682057 19.800898 22.566289 21.707031 20.660156 L 22.554688 19.814453 C 23.507755 18.861386 24.763205 18.395681 26.025391 18.414062 z M 56.134766 18.414062 C 57.396951 18.432444 58.6672 18.934779 59.648438 19.916016 L 86.191406 46.457031 L 86.292969 46.558594 C 87.189083 47.454708 87.636756 48.619709 87.673828 49.804688 C 87.676981 49.870027 87.688891 49.93467 87.689453 50 C 87.688891 50.06533 87.676981 50.129973 87.673828 50.195312 C 87.636756 51.380291 87.189083 52.545292 86.292969 53.441406 L 85.445312 54.289062 L 59.648438 80.083984 C 57.685963 82.046459 54.57215 82.091682 52.666016 80.185547 L 51.818359 79.339844 C 49.912225 77.43371 49.957448 74.317944 51.919922 72.355469 L 74.275391 50 L 51.919922 27.644531 C 49.957448 25.682057 49.912226 22.566289 51.818359 20.660156 L 52.666016 19.814453 C 53.619083 18.861386 54.87258 18.395681 56.134766 18.414062 z "
     id="path854" />
</svg>
