<?xml version="1.0" encoding="UTF-8" standalone="no"?>
<svg
   xmlns:dc="http://purl.org/dc/elements/1.1/"
   xmlns:cc="http://creativecommons.org/ns#"
   xmlns:rdf="http://www.w3.org/1999/02/22-rdf-syntax-ns#"
   xmlns:svg="http://www.w3.org/2000/svg"
   xmlns="http://www.w3.org/2000/svg"
   xmlns:sodipodi="http://sodipodi.sourceforge.net/DTD/sodipodi-0.dtd"
   xmlns:inkscape="http://www.inkscape.org/namespaces/inkscape"
   viewBox="0 0 100 100"
   version="1.1"
   id="svg4"
   sodipodi:docname="warning.svg"
   inkscape:version="0.92.2 5c3e80d, 2017-08-06"
   width="100"
   height="100">
  <metadata
     id="metadata10">
    <rdf:RDF>
      <cc:Work
         rdf:about="">
        <dc:format>image/svg+xml</dc:format>
        <dc:type
           rdf:resource="http://purl.org/dc/dcmitype/StillImage" />
        <dc:title />
      </cc:Work>
    </rdf:RDF>
  </metadata>
  <defs
     id="defs8" />
  <sodipodi:namedview
     pagecolor="#ffffff"
     bordercolor="#666666"
     borderopacity="1"
     objecttolerance="10"
     gridtolerance="10"
     guidetolerance="10"
     inkscape:pageopacity="0"
     inkscape:pageshadow="2"
     inkscape:window-width="1920"
     inkscape:window-height="1016"
     id="namedview6"
     showgrid="false"
     inkscape:zoom="3.6875"
     inkscape:cx="-42.858308"
     inkscape:cy="53.085301"
     inkscape:window-x="0"
     inkscape:window-y="27"
     inkscape:window-maximized="1"
     inkscape:current-layer="svg4"
     fit-margin-top="0"
     fit-margin-left="0"
     fit-margin-right="0"
     fit-margin-bottom="0"
     inkscape:snap-global="false" />
  <path
     style="opacity:1;fill:#ffc273;fill-opacity:0.72047246;fill-rule:nonzero;stroke:none;stroke-width:3.77952766;stroke-linecap:round;stroke-miterlimit:4;stroke-dasharray:none;stroke-dashoffset:0;stroke-opacity:1"
     d="M 50 0 A 50 50 0 0 0 0 50 A 50 50 0 0 0 50 100 A 50 50 0 0 0 100 50 A 50 50 0 0 0 50 0 z M 50 7.0507812 A 42.94915 42.94915 0 0 1 92.949219 50 A 42.94915 42.94915 0 0 1 50 92.949219 A 42.94915 42.94915 0 0 1 7.0507812 50 A 42.94915 42.94915 0 0 1 50 7.0507812 z "
     id="path816" />
  <g
     id="g859"
     transform="translate(-0.711864,-0.6711292)"
     style="fill:#ff9e00;fill-opacity:0.72047246">
    <circle
       r="9.4915257"
       cy="77.491524"
       cx="50.711864"
       id="path836"
       style="opacity:1;fill:#ff9e00;fill-opacity:0.72047246;fill-rule:nonzero;stroke:none;stroke-width:3.77952766;stroke-linecap:round;stroke-miterlimit:4;stroke-dasharray:none;stroke-dashoffset:0;stroke-opacity:1" />
    <path
       inkscape:connector-curvature="0"
       id="rect838"
       d="m 43.454427,14.359209 c -1.412982,0 -2.433824,1.705849 -2.288104,3.825626 l 2.88598,41.974352 c 0.14572,2.119778 1.400312,3.827141 2.813294,3.827141 h 0.569211 6.554113 0.569211 c 1.412982,0 2.667573,-1.707364 2.813293,-3.827141 l 2.88598,-41.974352 c 0.14572,-2.119777 -0.875122,-3.825626 -2.288104,-3.825626 h -7.123324 c -0.04502,0 -0.08944,0.0072 -0.134113,0.0106 -0.04467,-0.0035 -0.08909,-0.0106 -0.134113,-0.0106 z"
       style="opacity:1;fill:#ff9e00;fill-opacity:0.72047246;fill-rule:nonzero;stroke:none;stroke-width:3.77952766;stroke-linecap:round;stroke-miterlimit:4;stroke-dasharray:none;stroke-dashoffset:0;stroke-opacity:1" />
  </g>
</svg>
